<svg width="12" height="9" viewBox="0 0 12 9" fill="none" xmlns="http://www.w3.org/2000/svg">
	<path d="M8.96989 5.44779L7.36176 6.96448C7.12142 7.21676 7.12714 7.61654 7.36216 7.85056L7.36237 7.85076C7.61261 8.10053 8.0022 8.10053 8.25245 7.85076L8.25243 7.85075L8.25468 7.84856L11.3585 4.82757C11.5958 4.58957 11.5952 4.19081 11.3577 3.95432L11.3576 3.95436L11.3539 3.95046L8.25077 0.723741C8.00046 0.475646 7.61206 0.476202 7.36237 0.725408C7.12402 0.963291 7.12432 1.36286 7.36216 1.59968L7.3623 1.59954L7.36908 1.60686L8.98168 3.34603L9.37109 3.76601L8.79835 3.76601L1.53861 3.76601C1.1866 3.76601 0.905697 4.04386 0.905697 4.38471C0.905697 4.73018 1.19129 5.01591 1.53861 5.01591L8.79835 5.01592L9.42779 5.01592L8.96989 5.44779Z" fill="#CAA276" stroke="#212427" stroke-width="0.5"/>
</svg>