<svg width="9" height="9" viewBox="0 0 9 9" fill="none" xmlns="http://www.w3.org/2000/svg">
	<path d="M6.96366 3.10497L6.9464 5.31543C6.96231 5.6635 7.25495 5.93593 7.58652 5.92811L7.58681 5.92811C7.94028 5.92018 8.20979 5.63886 8.20255 5.28537L8.20253 5.28537L8.20251 5.28224L8.16818 0.951102C8.1605 0.615082 7.87211 0.339685 7.53704 0.347586L7.53704 0.347645L7.53163 0.347656L3.05492 0.356238C2.70261 0.36536 2.43432 0.646215 2.44155 0.998914C2.44844 1.33559 2.73718 1.61178 3.07272 1.60387L3.07272 1.60367L3.08269 1.60384L5.45412 1.6425L6.02678 1.65184L5.63057 2.06541L0.608411 7.30771C0.364898 7.5619 0.371213 7.95696 0.617338 8.19275C0.866808 8.43175 1.27071 8.42318 1.51098 8.17238L6.53314 2.93008L6.96857 2.47555L6.96366 3.10497Z" fill="#CAA276" stroke="#161C23" stroke-width="0.5"/>
</svg>
