<svg width="10" height="9" viewBox="0 0 10 9" fill="none" xmlns="http://www.w3.org/2000/svg">
	<path d="M2.4606 5.41289L2.52526 3.20331C2.51681 2.85497 2.23008 2.57633 1.89842 2.57704L1.89813 2.57704C1.54457 2.57738 1.26909 2.85286 1.26875 3.20642L1.26877 3.20642L1.26872 3.20956L1.21017 7.54044C1.21065 7.87654 1.49307 8.15806 1.82823 8.15734L1.82823 8.15729L1.83364 8.15739L6.3095 8.2448C6.66192 8.24324 6.93618 7.9682 6.93652 7.61543C6.93684 7.27868 6.65409 6.99636 6.31846 6.99707L6.31846 6.99727L6.30849 6.99689L3.93843 6.90739L3.36611 6.88578L3.77109 6.48079L8.9045 1.34738C9.15341 1.09847 9.15557 0.703368 8.91456 0.462355C8.67027 0.218068 8.26628 0.217968 8.02068 0.463562L2.88727 5.59698L2.44219 6.04205L2.4606 5.41289Z" fill="#8484F1" stroke="#161C23" stroke-width="0.5"/>
</svg>
