<svg width="17" height="17" viewBox="0 0 17 17" fill="none" xmlns="http://www.w3.org/2000/svg">
	<path d="M5.1986 7.1434L8.5 3.842L11.8031 7.1451L13.7241 5.2241L8.5 1.67427e-08L3.2776 5.2224L5.1986 7.1434ZM-1.67427e-08 8.5L1.921 6.579L3.842 8.5L1.921 10.421L-1.67427e-08 8.5ZM5.1986 9.8566L8.5 13.158L11.8031 9.8549L13.7241 11.7751L8.5 17L3.2776 11.7776L3.27505 11.7751L5.1986 9.8566ZM13.158 8.5L15.079 6.579L17 8.5L15.079 10.421L13.158 8.5ZM10.4482 8.4983L10.4499 8.4983L10.4499 8.5L8.5 10.4499L6.55265 8.5034L6.54925 8.5L6.55265 8.49745L6.8935 8.15575L7.05925 7.99L8.5 6.5501L10.449 8.49915L10.4482 8.4983Z" fill="#F3BA2F"/>
</svg>
