<svg width="13" height="17" viewBox="0 0 13 17" fill="none" xmlns="http://www.w3.org/2000/svg">
	<path d="M11.3661 5.71298C11.2568 4.01341 9.81112 3.3994 7.96963 3.17927L8.04347 0.828437L6.61324 0.78412L6.5408 3.07299C6.16486 3.06054 5.78085 3.05641 5.39763 3.05211L5.47094 0.748259L4.04054 0.703157L3.96652 3.0532C3.6566 3.0495 3.35173 3.04635 3.05527 3.03645L3.05531 3.02904L1.08182 2.96652L1.03398 4.49453C1.03398 4.49453 2.0916 4.50759 2.07345 4.52631C2.65296 4.5449 2.83055 4.88716 2.87654 5.17976L2.79279 7.85747C2.83253 7.85875 2.88428 7.86236 2.94385 7.87168L2.79247 7.86741L2.67448 11.6188C2.64293 11.8 2.52666 12.0874 2.12126 12.0755C2.13964 12.0921 1.08162 12.0429 1.08162 12.0429L0.743587 13.7422L2.60605 13.8008C2.95219 13.8123 3.29289 13.8291 3.62691 13.8415L3.553 16.2187L4.98245 16.2632L5.05629 13.9123C5.44858 13.9319 5.82834 13.9468 6.19923 13.9587L6.12492 16.2998L7.55515 16.3441L7.63008 13.9717C10.0403 13.9094 11.7426 13.3564 12.0227 11.104C12.2489 9.29079 11.4188 8.45162 10.0636 8.08114C10.907 7.68506 11.4484 6.95715 11.3661 5.71298ZM9.20402 10.7334C9.14995 12.5102 6.11349 12.2122 5.14356 12.1826L5.24362 9.03274C6.21389 9.06386 9.26305 8.88068 9.20402 10.7334ZM8.67859 6.2685C8.62771 7.88513 6.09654 7.61597 5.28949 7.59066L5.37914 4.73491C6.18619 4.76021 8.73171 4.58233 8.67859 6.2685Z" fill="#DB953C"/>
</svg>