<svg
  width="274"
  height="103"
  viewBox="0 0 274 103"
  fill="none"
  xmlns="http://www.w3.org/2000/svg"
>
  <path
    d="M204.807 102.015L204.81 102.016C207.344 102.917 209.215 103.026 210.469 102.423L270.692 56.8808L270.692 56.8805L270.701 56.8743C271.946 56.0384 272.755 55.2949 273.158 54.646C273.238 54.4774 273.298 54.3175 273.337 54.166L273.343 54.141L273.356 54.1185C273.388 54.0613 273.418 53.9362 273.418 53.7099V53.6877L273.423 53.666L273.437 53.6053C273.423 53.5277 273.39 53.4397 273.334 53.3408L273.334 53.341L273.329 53.3299C273.091 52.8397 272.428 52.3928 271.237 52.0317C271.237 52.0317 271.237 52.0317 271.237 52.0317L100.3 0.771608L100.299 0.771811L100.291 0.768766C98.6659 0.198887 96.7462 0.0547952 94.526 0.347577L5.39166 28.2509L5.39053 28.2512L3.45059 28.8708C3.44904 28.8714 3.44745 28.872 3.44589 28.8726C2.42163 29.2575 1.70117 29.673 1.26389 30.1104L1.20532 30.169C1.02646 30.3902 0.893768 30.6138 0.804474 30.8395C0.804291 30.84 0.804077 30.8405 0.803894 30.8409L0.761536 30.9544L0.725281 31.0516C0.72226 31.0655 0.718109 31.0785 0.713135 31.0906C0.714478 31.0965 0.715973 31.1013 0.717407 31.105L0.730682 31.1397L0.730621 31.1769L0.730194 31.3879C0.744354 31.7732 0.800079 32.1087 0.89444 32.3974C1.19595 33.2482 1.78278 33.9092 2.66937 34.3808L4.16629 34.882L204.807 102.015ZM217.917 56.9122L217.919 56.9113C218.451 56.5676 219.03 56.4883 219.64 56.6731C219.641 56.6733 219.641 56.6735 219.642 56.6736L230.804 59.8428C230.834 59.8479 230.859 59.857 230.87 59.8609C230.892 59.8691 230.918 59.88 230.946 59.8923C231.067 59.9344 231.175 59.9868 231.257 60.0558C231.344 60.1292 231.413 60.233 231.413 60.3656C231.413 60.49 231.351 60.5964 231.279 60.68C231.206 60.7654 231.104 60.8473 230.983 60.9272L230.982 60.9275L225.239 64.686L225.237 64.6872C224.718 65.0185 224.141 65.0954 223.521 64.9262L223.519 64.9257L212.317 61.7511L212.317 61.7512L212.312 61.7496C212.168 61.7045 212.043 61.6515 211.948 61.5859C211.854 61.5214 211.763 61.4268 211.741 61.2933C211.719 61.1569 211.779 61.0393 211.853 60.9515C211.926 60.8644 212.031 60.784 212.155 60.7082L217.917 56.9122Z"
    fill="rgba(0, 0, 0, 0.4)"
    fillOpacity="1"
    stroke="#FEF8F8"
    strokeWidth="0.4"
  />
</svg>