<svg width="103" height="103" viewBox="0 0 103 103" fill="none" xmlns="http://www.w3.org/2000/svg">
  <path d="M41.7693 48.4821C40.969 47.6818 39.8835 47.2322 38.7518 47.2322C37.62 47.2322 36.5346 47.6818 35.7343 48.4821C34.934 49.2824 34.4844 50.3678 34.4844 51.4996C34.4844 52.6314 34.934 53.7168 35.7343 54.5171L48.4843 67.2671C48.8814 67.661 49.3524 67.9726 49.8702 68.1841C50.388 68.3956 50.9424 68.5028 51.5018 68.4996C52.0836 68.4811 52.6554 68.3434 53.1818 68.0948C53.7082 67.8462 54.1779 67.4922 54.5618 67.0546L84.3118 33.0546C84.9987 32.2017 85.3299 31.1166 85.2363 30.0256C85.1428 28.9345 84.6317 27.9216 83.8096 27.1981C82.9874 26.4747 81.9178 26.0965 80.8237 26.1424C79.7296 26.1883 78.6954 26.6548 77.9368 27.4446L51.5018 58.0446L41.7693 48.4821Z" fill="#DAA147"/>
  <path d="M89.748 47.25C88.6208 47.25 87.5398 47.6978 86.7428 48.4948C85.9457 49.2918 85.498 50.3728 85.498 51.5C85.498 60.5174 81.9159 69.1654 75.5396 75.5416C69.1634 81.9179 60.5153 85.5 51.498 85.5C44.7834 85.4969 38.22 83.5057 32.6355 79.7775C27.051 76.0493 22.6954 70.751 20.118 64.5508C17.5406 58.3505 16.8568 51.5259 18.1529 44.9375C19.4489 38.3492 22.6667 32.2921 27.4005 27.53C30.5485 24.3399 34.3011 21.8097 38.4388 20.0875C42.5765 18.3652 47.0162 17.4856 51.498 17.5C54.2156 17.517 56.9233 17.8305 59.573 18.435C60.1275 18.6065 60.7112 18.6626 61.2882 18.5999C61.8652 18.5372 62.4232 18.3569 62.9279 18.0703C63.4326 17.7836 63.8732 17.3966 64.2226 16.9331C64.572 16.4697 64.8227 15.9396 64.9594 15.3755C65.096 14.8114 65.1157 14.2253 65.0172 13.6533C64.9186 13.0813 64.704 12.5356 64.3865 12.0498C64.069 11.5639 63.6553 11.1483 63.171 10.8284C62.6867 10.5085 62.142 10.2913 61.5705 10.19C58.2689 9.41328 54.8897 9.01406 51.498 9C43.1014 9.04362 34.9059 11.5735 27.9457 16.2703C20.9856 20.9671 15.5726 27.6204 12.39 35.3905C9.20737 43.1606 8.39771 51.6994 10.0632 59.9293C11.7287 68.1591 15.7946 75.7112 21.748 81.6325C29.6389 89.527 40.336 93.974 51.498 94C62.7697 94 73.5797 89.5223 81.55 81.552C89.5203 73.5817 93.998 62.7717 93.998 51.5C93.998 50.3728 93.5502 49.2918 92.7532 48.4948C91.9562 47.6978 90.8752 47.25 89.748 47.25Z" fill="#DAA147"/>
</svg>
