<svg width="20" height="15" viewBox="0 0 20 15" fill="none" xmlns="http://www.w3.org/2000/svg">
	<path d="M3.4595 5.98536L3.45926 5.98513C3.13417 5.66003 2.69325 5.4774 2.2335 5.4774C1.77374 5.4774 1.33282 5.66003 1.00773 5.98513C0.682636 6.31022 0.5 6.75114 0.5 7.21089C0.5 7.67064 0.682636 8.11156 1.00773 8.43666L5.90156 13.3227C5.90159 13.3227 5.90163 13.3227 5.90166 13.3228C5.9017 13.3228 5.90174 13.3228 5.90177 13.3229C6.22755 13.6476 6.66879 13.83 7.1288 13.83C7.58891 13.83 8.03024 13.6476 8.35604 13.3227L18.2319 3.4585L3.4595 5.98536ZM3.4595 5.98536L6.37576 8.89773L6.37736 8.8993M3.4595 5.98536L6.37736 8.8993M6.37736 8.8993C6.5771 9.097 6.84679 9.20789 7.12782 9.20789C7.40886 9.20789 7.67854 9.097 7.87829 8.89931L7.8799 8.8977M6.37736 8.8993L7.8799 8.8977M7.8799 8.8977L15.7784 1.00893L15.7789 1.00849M7.8799 8.8977L15.7789 1.00849M15.7789 1.00849C15.9398 0.847418 16.1308 0.719611 16.341 0.632365M15.7789 1.00849L16.341 0.632365M16.341 0.632365C16.5513 0.545119 16.7767 0.500141 17.0043 0.5M16.341 0.632365L17.0043 0.5M17.0043 0.5C17.232 0.499859 17.4574 0.544558 17.6678 0.631544M17.0043 0.5L17.6678 0.631544M17.6678 0.631544C17.8782 0.71853 18.0693 0.846101 18.2304 1.00697M17.6678 0.631544L18.2304 1.00697M18.2304 1.00697C18.3915 1.16784 18.5193 1.35886 18.6065 1.56912M18.2304 1.00697L18.6065 1.56912M18.6065 1.56912C18.6938 1.77939 18.7388 2.00478 18.7389 2.23242M18.6065 1.56912L18.7389 2.23242M18.7389 2.23242C18.739 2.46007 18.6943 2.68551 18.6074 2.89588M18.7389 2.23242L18.6074 2.89588M18.6074 2.89588C18.5205 3.10607 18.393 3.29709 18.2324 3.45807L18.6074 2.89588Z" fill="none" stroke="#9E9E9E"/>
</svg>
