<svg width="14" height="14" viewBox="0 0 14 14" fill="none" xmlns="http://www.w3.org/2000/svg">
		<path d="M9.16357 6.52362L8.98683 6.7004L9.16359 6.87716L13.2067 10.9202L13.2066 10.9203L13.2113 10.9247C13.3361 11.0433 13.436 11.1857 13.5049 11.3434C13.5739 11.5012 13.6106 11.6712 13.6128 11.8433C13.615 12.0155 13.5828 12.1864 13.5179 12.3459C13.4531 12.5054 13.357 12.6503 13.2353 12.772C13.1135 12.8938 12.9687 12.99 12.8092 13.0549C12.6497 13.1198 12.4789 13.1521 12.3067 13.1499C12.1345 13.1477 11.9646 13.1111 11.8068 13.0422C11.649 12.9733 11.5066 12.8735 11.388 12.7487L11.388 12.7486L11.3835 12.7442L7.33968 8.7003L7.1629 8.52352L6.98613 8.7003L2.94465 12.7418C2.70099 12.9721 2.37718 13.0985 2.04184 13.0941C1.70548 13.0898 1.38413 12.9542 1.14631 12.7163C0.908483 12.4784 0.773005 12.157 0.768758 11.8206C0.764524 11.4853 0.891064 11.1615 1.12148 10.9179L5.16222 6.87716L5.33898 6.7004L5.16224 6.52362L1.11915 2.47977L1.11921 2.47971L1.11452 2.47526C0.989674 2.35669 0.889829 2.21433 0.820871 2.05657C0.751912 1.8988 0.715234 1.72883 0.712999 1.55667C0.710765 1.38451 0.743018 1.21364 0.807859 1.05414C0.8727 0.894645 0.968816 0.749741 1.09054 0.627973C1.21227 0.506205 1.35714 0.410038 1.51661 0.345141C1.67609 0.280243 1.84694 0.247929 2.01911 0.250103C2.19127 0.252277 2.36125 0.288894 2.51904 0.357797C2.67683 0.4267 2.81922 0.526494 2.93783 0.651297L2.93777 0.651352L2.94227 0.655848L6.98613 4.6997L7.16292 4.8765L7.3397 4.69969L11.3811 0.657467C11.6243 0.423397 11.9495 0.293911 12.287 0.296844C12.6252 0.299783 12.9487 0.435444 13.1879 0.674607C13.4271 0.91377 13.5627 1.2373 13.5657 1.57552C13.5686 1.91305 13.4391 2.23825 13.2051 2.48137L9.16357 6.52362Z" fill="#F15827" stroke="#0A1018" stroke-width="0.5"/>
</svg>