<?xml version="1.0" encoding="UTF-8"?>
<svg xmlns="http://www.w3.org/2000/svg" xmlns:xlink="http://www.w3.org/1999/xlink" width="13pt" height="13pt" viewBox="0 0 13 13" version="1.1">
<g id="surface1">
<path style=" stroke:none;fill-rule:nonzero;fill:rgb(14.509804%,45.098039%,76.078431%);fill-opacity:1;" d="M 13 6.5 C 13 10.089844 10.089844 13 6.5 13 C 2.910156 13 0 10.089844 0 6.5 C 0 2.910156 2.910156 0 6.5 0 C 10.089844 0 13 2.910156 13 6.5 Z M 13 6.5 "/>
<path style=" stroke:none;fill-rule:nonzero;fill:rgb(100%,100%,100%);fill-opacity:1;" d="M 10.742188 4.789062 C 10.734375 4.644531 10.691406 4.503906 10.617188 4.375 C 10.550781 4.246094 10.4375 4.144531 10.300781 4.09375 C 10.164062 4.023438 10.011719 3.988281 9.855469 3.996094 L 4.085938 3.996094 L 3.671875 5.234375 L 8.902344 5.234375 L 8.074219 7.765625 L 2.847656 7.765625 L 2.4375 9.003906 L 8.234375 9.003906 C 8.40625 9 8.578125 8.96875 8.738281 8.90625 C 8.902344 8.816406 9.085938 8.722656 9.246094 8.589844 C 9.398438 8.46875 9.535156 8.332031 9.65625 8.179688 C 9.757812 8.027344 9.84375 7.867188 9.914062 7.703125 L 10.679688 5.292969 C 10.746094 5.136719 10.769531 4.960938 10.742188 4.789062 Z M 10.742188 4.789062 "/>
<path style=" stroke:none;fill-rule:nonzero;fill:rgb(100%,100%,100%);fill-opacity:1;" d="M 5.734375 5.925781 L 2.660156 5.925781 L 2.246094 7.070312 L 5.351562 7.070312 Z M 5.734375 5.925781 "/>
</g>
</svg>
