<?xml version="1.0" encoding="UTF-8"?>
<svg xmlns="http://www.w3.org/2000/svg" xmlns:xlink="http://www.w3.org/1999/xlink" width="13pt" height="13pt" viewBox="0 0 13 13" version="1.1">
<g id="surface1">
<path style=" stroke:none;fill-rule:nonzero;fill:rgb(76.078431%,65.098039%,20%);fill-opacity:1;" d="M 6.65625 4.285156 L 5.726562 4.285156 L 5.726562 6.113281 L 7.1875 6.113281 L 7.1875 6.882812 L 5.726562 6.882812 L 5.726562 8.710938 L 6.703125 8.710938 C 6.953125 8.710938 8.757812 8.738281 8.753906 6.582031 C 8.75 4.421875 7.003906 4.285156 6.65625 4.285156 Z M 6.65625 4.285156 "/>
<path style=" stroke:none;fill-rule:nonzero;fill:rgb(76.078431%,65.098039%,20%);fill-opacity:1;" d="M 6.5 0 C 2.910156 0 0 2.910156 0 6.5 C 0 10.089844 2.910156 13 6.5 13 C 10.089844 13 13 10.089844 13 6.5 C 13 2.910156 10.089844 0 6.5 0 Z M 6.753906 10.011719 L 4.402344 10.011719 L 4.402344 6.882812 L 3.570312 6.882812 L 3.570312 6.113281 L 4.402344 6.113281 L 4.402344 2.984375 L 6.421875 2.984375 C 6.898438 2.984375 10.066406 2.886719 10.066406 6.554688 C 10.066406 10.289062 6.753906 10.011719 6.753906 10.011719 Z M 6.753906 10.011719 "/>
</g>
</svg>
