<svg width="9" height="6" viewBox="0 0 9 6" fill="none" xmlns="http://www.w3.org/2000/svg">
	<path d="M7.82584 1.69585L7.82572 1.69597L4.75993 4.76277L7.82584 1.69585ZM7.82584 1.69585C8.01854 1.50265 8.01835 1.18996 7.82597 0.996598L7.82584 0.996464L7.82584 1.69585ZM4.41048 3.7139L4.30443 3.81998L1.58783 1.10274C1.4536 0.968161 1.23556 0.968161 1.10099 1.10274C0.966753 1.23731 0.966753 1.45568 1.10099 1.59026L7.71964 1.1024C7.5854 0.967821 7.36737 0.967821 7.23313 1.1024M4.41048 3.7139L4.51653 3.81997L7.23313 1.1024M4.41048 3.7139L7.12693 0.996464M4.41048 3.7139L1.69403 0.996804L1.58783 1.10273L1.69391 0.996683C1.50098 0.803398 1.18796 0.803631 0.994923 0.99667L0.994789 0.996804C0.802154 1.18993 0.802154 1.50307 0.994789 1.69619L0.994905 1.69631L4.06082 4.76324L4.06096 4.76338C4.25226 4.95423 4.56862 4.95447 4.7598 4.7629L7.12693 0.996464M7.23313 1.1024L7.12693 0.996464M7.23313 1.1024L7.12705 0.996349L7.12699 0.99641C7.12697 0.996428 7.12695 0.996446 7.12693 0.996464" fill="none" stroke="#C78D4E" stroke-width="1"/>
</svg>
