<svg width="25" height="25" viewBox="0 0 28 28" fill="none" xmlns="http://www.w3.org/2000/svg">
	<path d="M17.96 14L27.18 23.2199C28.2733 24.3133 28.2733 26.0862 27.18 27.1799C26.0866 28.2735 24.3137 28.2732 23.22 27.1799L14.0001 17.9599L4.78011 27.1799C3.68673 28.2732 1.9138 28.2732 0.82014 27.1799C-0.27352 26.0865 -0.27324 24.3136 0.82014 23.2199L10.0401 14L0.82014 4.78001C-0.27324 3.68663 -0.273238 1.9137 0.820422 0.820324C1.36725 0.273495 2.08376 0.000219345 2.80026 0.000219345C3.51677 0.000219345 4.23356 0.273495 4.78011 0.820324L14.0001 10.04L23.22 0.820044C23.7668 0.273212 24.4833 -6.10352e-05 25.1998 -6.10352e-05C25.9163 -6.10352e-05 26.6331 0.273212 27.1797 0.820044C28.2731 1.91342 28.2731 3.68635 27.1797 4.78001L17.96 14Z" fill="white"/>
</svg>
