<svg width="10" height="12" viewBox="0 0 10 12" fill="none" xmlns="http://www.w3.org/2000/svg">
	<path d="M9.21535 0.900001C9.39831 0.899656 9.55794 1.01549 9.63515 1.18624L9.21535 0.900001ZM9.21535 0.900001H9.21545V1L9.21523 0.900001C9.21527 0.900001 9.21531 0.900001 9.21535 0.900001ZM9.21535 0.900001H1.36988M9.21535 0.900001H1.36988M1.36988 0.900001C1.18699 0.899656 1.02738 1.0155 0.950172 1.18623L1.36988 0.900001ZM0.98567 1.72265C0.88558 1.56425 0.872468 1.35803 0.950167 1.18624L0.98567 1.72265ZM0.98567 1.72265C0.985724 1.72273 0.985779 1.72282 0.985833 1.7229M0.98567 1.72265L0.985833 1.7229M0.985833 1.7229L3.85985 6.3236L3.85987 6.32359L0.985833 1.7229ZM4.39198 5.92088L1.69752 1.60763H8.88779L6.19323 5.92089C6.02206 6.18518 5.93029 6.5032 5.92973 6.82884V6.82901V9.74766L4.65558 10.2997L4.65558 6.82901L4.65558 6.82884C4.65502 6.50321 4.56325 6.18517 4.39198 5.92088Z" fill="none" stroke="#C78D4E" stroke-width="1"/>
</svg>