<svg width="13" height="12" viewBox="0 0 13 12" fill="none" xmlns="http://www.w3.org/2000/svg">
	<path d="M11.9985 7.1665C11.8197 7.1665 11.6747 7.31144 11.6747 7.49027V10.365C11.6741 10.9012 11.2397 11.3358 10.7034 11.3363H1.61884C1.0826 11.3358 0.648167 10.9012 0.647535 10.365V1.92792C0.648167 1.39181 1.0826 0.957249 1.61884 0.956617H4.49354C4.67237 0.956617 4.8173 0.81168 4.8173 0.632849C4.8173 0.454145 4.67237 0.309082 4.49354 0.309082H1.61884C0.725188 0.310094 0.00101177 1.03427 0 1.92792V10.3651C0.00101177 11.2587 0.725188 11.9829 1.61884 11.9839H10.7034C11.5971 11.9829 12.3212 11.2587 12.3223 10.3651V7.49027C12.3223 7.31144 12.1773 7.1665 11.9985 7.1665Z" fill="#E19A4C"/>
</svg>
