<?xml version="1.0" encoding="UTF-8"?>
<svg xmlns="http://www.w3.org/2000/svg" xmlns:xlink="http://www.w3.org/1999/xlink" width="13pt" height="13pt" viewBox="0 0 13 13" version="1.1">
<g id="surface1">
<path style=" stroke:none;fill-rule:nonzero;fill:rgb(74.509804%,74.509804%,74.509804%);fill-opacity:1;" d="M 13 6.5 C 13 10.089844 10.089844 13 6.5 13 C 2.910156 13 0 10.089844 0 6.5 C 0 2.910156 2.910156 0 6.5 0 C 10.089844 0 13 2.910156 13 6.5 "/>
<path style=" stroke:none;fill-rule:nonzero;fill:rgb(74.509804%,74.509804%,74.509804%);fill-opacity:1;" d="M 11.621094 6.5 C 11.621094 9.328125 9.328125 11.621094 6.5 11.621094 C 3.671875 11.621094 1.378906 9.328125 1.378906 6.5 C 1.378906 3.671875 3.671875 1.378906 6.5 1.378906 C 9.328125 1.378906 11.621094 3.671875 11.621094 6.5 "/>
<path style=" stroke:none;fill-rule:nonzero;fill:rgb(100%,100%,100%);fill-opacity:1;" d="M 6.121094 8.238281 L 6.542969 6.648438 L 7.542969 6.28125 L 7.789062 5.347656 L 7.78125 5.324219 L 6.796875 5.683594 L 7.507812 3.015625 L 5.496094 3.015625 L 4.570312 6.496094 L 3.796875 6.78125 L 3.539062 7.742188 L 4.3125 7.460938 L 3.765625 9.515625 L 9.117188 9.515625 L 9.460938 8.238281 L 6.121094 8.238281 "/>
</g>
</svg>
