<svg width="8" height="13" viewBox="0 0 8 13" fill="none" xmlns="http://www.w3.org/2000/svg">
	<path d="M2.09276 1.00098L2.09256 1.00079C1.78136 0.690369 1.27767 0.690688 0.96622 1.00057L0.96622 1.00057L0.965997 1.00079C0.654627 1.31137 0.654564 1.81578 0.965805 2.12644C0.965817 2.12645 0.965829 2.12647 0.965842 2.12648C0.965893 2.12653 0.965945 2.12658 0.965997 2.12663L5.26872 6.42781L0.966536 10.729C0.966477 10.729 0.966393 10.7291 0.966334 10.7292C0.654954 11.0399 0.65536 11.5442 0.966312 11.8551L0.966536 11.8553C1.27762 12.1656 1.78202 12.1656 2.0931 11.8553L2.0933 11.8551L6.95901 6.99104L6.95925 6.9908C7.26678 6.68255 7.26711 6.17288 6.95826 5.86488L2.09276 1.00098Z" fill="#25292F" stroke="#25292F" stroke-width="0.5"/>
</svg>
