<svg width="50" height="50" viewBox="0 0 83 83" fill="none" xmlns="http://www.w3.org/2000/svg">
	<path d="M38.2384 1.80632C40.1133 0.192981 42.886 0.19298 44.7609 1.80632L49.9072 6.2347C50.9974 7.17279 52.4387 7.59601 53.863 7.39623L60.5865 6.45314C63.036 6.10956 65.3686 7.60863 66.0737 9.9795L68.0088 16.4872C68.4188 17.8658 69.4025 19.001 70.7087 19.603L76.8748 22.4446C79.1212 23.4799 80.273 26.0021 79.5843 28.3778L77.694 34.8986C77.2935 36.28 77.5073 37.7669 78.2807 38.9795L81.9316 44.7036C83.2617 46.789 82.8671 49.5336 81.0034 51.1598L75.8877 55.6235C74.804 56.5691 74.1799 57.9355 74.175 59.3737L74.1516 66.163C74.1431 68.6365 72.3273 70.732 69.8803 71.0924L63.1634 72.0818C61.7405 72.2914 60.4768 73.1035 59.6951 74.3107L56.0049 80.0096C54.6604 82.0858 52 82.867 49.7465 81.8472L43.5611 79.0481C42.2507 78.4552 40.7485 78.4552 39.4382 79.0481L33.2528 81.8472C30.9993 82.867 28.3388 82.0858 26.9944 80.0096L23.3042 74.3107C22.5225 73.1035 21.2587 72.2914 19.8359 72.0818L13.119 71.0924C10.6719 70.732 8.85616 68.6365 8.84765 66.163L8.82428 59.3737C8.81933 57.9355 8.1953 56.569 7.1116 55.6235L1.99591 51.1598C0.13216 49.5336 -0.262449 46.789 1.06765 44.7036L4.71855 38.9795C5.49195 37.7669 5.70574 36.28 5.30529 34.8986L3.41495 28.3778C2.72626 26.0021 3.87811 23.4799 6.12452 22.4446L12.2906 19.603C13.5968 19.001 14.5805 17.8658 14.9904 16.4872L16.9256 9.97951C17.6306 7.60863 19.9632 6.10956 22.4127 6.45314L29.1362 7.39623C30.5605 7.59601 32.0019 7.17279 33.0921 6.2347L38.2384 1.80632Z" fill="#E0B36A"/>
</svg>
