<svg width="38" height="28" viewBox="0 0 38 28" fill="none" xmlns="http://www.w3.org/2000/svg">
	<path d="M7.17954 11.3595L7.1793 11.3592C6.44615 10.634 5.45065 10.2255 4.41152 10.2255C3.37239 10.2255 2.37689 10.634 1.64374 11.3592C0.910778 12.0843 0.5 13.0666 0.5 14.0897C0.5 15.1126 0.910672 16.0948 1.64346 16.8198L7.17954 11.3595ZM7.17954 11.3595L12.9396 17.0501L12.9412 17.0516M7.17954 11.3595L12.9412 17.0516M12.9412 17.0516C13.2449 17.3489 13.6537 17.5147 14.0786 17.5147C14.5035 17.5147 14.9124 17.3489 15.216 17.0516L15.2176 17.05M12.9412 17.0516L15.2176 17.05M15.2176 17.05L30.8186 1.63581L30.819 1.63537M15.2176 17.05L30.819 1.63537M30.819 1.63537C31.1817 1.27607 31.6128 0.990692 32.0876 0.795781C32.5625 0.600867 33.0716 0.500316 33.5861 0.500001C34.1005 0.499686 34.6098 0.599613 35.0849 0.793947C35.56 0.988277 35.9913 1.27313 36.3545 1.63199C36.7177 1.99083 37.0056 2.41663 37.2021 2.88495C37.3985 3.35325 37.4997 3.85505 37.5 4.36173C37.5003 4.86842 37.3998 5.37034 37.2039 5.83888C37.0081 6.30728 36.7209 6.73332 36.3583 7.09254C36.3582 7.09265 36.3581 7.09276 36.358 7.09287L16.8508 26.3676C16.8507 26.3676 16.8506 26.3677 16.8505 26.3678M30.819 1.63537L16.8505 26.3678M16.8505 26.3678C16.116 27.0922 15.12 27.5 14.0806 27.5M16.8505 26.3678L14.0806 27.5M14.0806 27.5C13.0411 27.5 12.045 27.0922 11.3106 26.3678L14.0806 27.5ZM11.3103 26.3676L1.64374 16.8201L11.3103 26.3676Z" fill="white" stroke="#E0B36A"/>
</svg>
