<svg width="83" height="83" viewBox="0 0 83 83" fill="none" xmlns="http://www.w3.org/2000/svg">
	<path d="M38.2388 1.80632C40.1137 0.192981 42.8865 0.19298 44.7614 1.80632L49.9077 6.2347C50.9979 7.17279 52.4392 7.59601 53.8635 7.39623L60.587 6.45314C63.0365 6.10956 65.3691 7.60863 66.0742 9.9795L68.0093 16.4872C68.4193 17.8658 69.403 19.001 70.7092 19.603L76.8752 22.4446C79.1217 23.4799 80.2735 26.0021 79.5848 28.3778L77.6945 34.8986C77.294 36.28 77.5078 37.7669 78.2812 38.9795L81.9321 44.7036C83.2622 46.789 82.8676 49.5336 81.0039 51.1598L75.8882 55.6235C74.8045 56.5691 74.1804 57.9355 74.1755 59.3737L74.1521 66.163C74.1436 68.6365 72.3278 70.732 69.8808 71.0924L63.1639 72.0818C61.741 72.2914 60.4773 73.1035 59.6956 74.3107L56.0053 80.0096C54.6609 82.0858 52.0005 82.867 49.747 81.8472L43.5615 79.0481C42.2512 78.4552 40.749 78.4552 39.4387 79.0481L33.2533 81.8472C30.9998 82.867 28.3393 82.0858 26.9949 80.0096L23.3047 74.3107C22.523 73.1035 21.2592 72.2914 19.8364 72.0818L13.1195 71.0924C10.6724 70.732 8.85665 68.6365 8.84813 66.163L8.82477 59.3737C8.81982 57.9355 8.19578 56.569 7.11209 55.6235L1.99639 51.1598C0.132649 49.5336 -0.261961 46.789 1.06813 44.7036L4.71904 38.9795C5.49244 37.7669 5.70622 36.28 5.30578 34.8986L3.41544 28.3778C2.72675 26.0021 3.8786 23.4799 6.125 22.4446L12.291 19.603C13.5972 19.001 14.581 17.8658 14.9909 16.4872L16.9261 9.97951C17.6311 7.60863 19.9637 6.10956 22.4132 6.45314L29.1367 7.39623C30.561 7.59601 32.0024 7.17279 33.0925 6.2347L38.2388 1.80632Z" fill="#E0B36A"/>
</svg>
